<?xml version="1.0" standalone="no"?>
<!DOCTYPE svg PUBLIC "-//W3C//DTD SVG 20010904//EN"
 "http://www.w3.org/TR/2001/REC-SVG-20010904/DTD/svg10.dtd">
<svg version="1.0" xmlns="http://www.w3.org/2000/svg"
 width="225.000000pt" height="225.000000pt" viewBox="0 0 225.000000 225.000000"
 preserveAspectRatio="xMidYMid meet">
<metadata>
Created by potrace 1.11, written by Peter Selinger 2001-2013
</metadata>
<g transform="translate(0.000000,225.000000) scale(0.100000,-0.100000)"
fill="#000000" stroke="none">
<path d="M770 2230 c-19 -19 -20 -33 -20 -375 l0 -355 -355 0 c-342 0 -356 -1
-375 -20 -19 -19 -20 -33 -20 -355 0 -322 1 -336 20 -355 19 -19 33 -20 375
-20 l355 0 0 -355 c0 -342 1 -356 20 -375 19 -19 33 -20 355 -20 322 0 336 1
355 20 19 19 20 33 20 375 l0 355 355 0 c342 0 356 1 375 20 19 19 20 33 20
355 0 322 -1 336 -20 355 -19 19 -33 20 -375 20 l-355 0 0 355 c0 342 -1 356
-20 375 -19 19 -33 20 -355 20 -322 0 -336 -1 -355 -20z m430 -215 c0 -5 -10
5 -22 22 -13 18 -26 33 -31 33 -14 0 26 -52 53 -69 14 -9 26 -23 28 -31 1 -10
-2 -9 -13 4 -8 11 -15 15 -15 8 0 -6 15 -26 33 -44 19 -18 39 -42 46 -53 11
-18 11 -18 5 5 -5 19 2 14 26 -19 35 -47 33 -73 -6 -79 -12 -2 -15 0 -7 5 6 4
-69 8 -168 8 -98 0 -179 -3 -179 -7 0 -4 -16 -7 -35 -6 -35 1 -35 1 -17 22 11
12 31 39 46 61 14 22 26 36 26 31 0 -4 -9 -21 -21 -37 -11 -16 -17 -29 -12
-29 12 0 47 61 48 84 1 10 9 24 18 31 10 7 17 15 17 19 0 3 23 36 52 73 l52
66 38 -44 c21 -24 38 -48 38 -54z m63 -85 c-3 -3 -8 1 -10 8 -3 6 -9 10 -14 7
-5 -4 -6 1 -3 10 6 14 8 14 19 -2 8 -10 11 -20 8 -23z m102 -130 c3 -5 -1 -10
-10 -10 -9 0 -13 5 -10 10 3 6 8 10 10 10 2 0 7 -4 10 -10z m-917 -501 c-10
-7 -10 -9 0 -9 10 0 12 -39 12 -175 -1 -130 -5 -173 -13 -169 -8 5 -8 2 1 -7
14 -16 16 -33 2 -24 -5 3 -10 2 -10 -4 0 -5 6 -11 13 -14 6 -2 10 -7 7 -10 -3
-3 -32 14 -64 39 -33 24 -56 44 -51 44 4 0 0 9 -10 20 -10 11 -23 20 -29 19
-6 0 -6 -3 2 -6 6 -2 12 -9 12 -15 0 -6 -6 -5 -15 2 -12 10 -13 15 -3 28 12
14 10 14 -12 2 -22 -12 -24 -12 -12 2 10 13 10 17 -3 22 -10 4 -14 2 -9 -5 4
-7 -2 -6 -17 1 -32 17 -39 25 -14 17 11 -4 1 10 -23 31 l-44 37 49 39 c26 20
63 46 81 57 32 19 45 43 17 33 -8 -4 -12 -11 -8 -17 3 -6 1 -7 -6 -3 -15 10 4
36 25 36 8 0 14 4 14 8 0 4 20 21 45 36 25 16 51 36 57 44 11 13 13 10 16 -18
2 -20 -2 -36 -10 -41z m1408 12 c-2 -3 3 -13 12 -21 14 -13 15 -12 9 4 -6 16
-5 17 8 6 8 -7 12 -16 9 -21 -3 -5 5 -9 16 -9 15 0 20 -5 17 -15 -7 -18 9 -30
19 -14 5 8 3 9 -6 4 -9 -5 -11 -4 -6 4 10 16 72 -31 70 -53 -2 -22 52 -61 62
-45 5 8 3 9 -6 4 -9 -5 -11 -4 -6 4 4 6 4 11 -1 10 -21 -4 -34 2 -27 13 5 7 3
8 -6 3 -9 -5 -11 -4 -6 4 8 13 46 -10 81 -49 18 -20 18 -22 2 -31 -9 -5 -47
-34 -83 -63 -37 -30 -74 -53 -83 -51 -13 2 -73 -35 -91 -56 -3 -3 -15 -8 -27
-11 -16 -4 -23 -2 -23 8 0 8 5 14 10 14 6 0 10 65 10 174 0 106 -4 177 -10
181 -5 3 -10 20 -10 36 l0 30 35 -27 c19 -14 33 -29 31 -33z m-751 39 c-3 -5
-2 -10 4 -10 5 0 13 5 16 10 8 13 45 13 45 -1 0 -13 87 -52 99 -44 13 7 60
-51 67 -83 4 -15 11 -32 16 -38 13 -18 5 -107 -12 -121 -11 -9 -12 -12 -2 -13
7 0 10 -5 7 -10 -4 -6 -11 -8 -16 -5 -5 4 -8 -4 -6 -17 1 -14 -3 -23 -13 -23
-8 0 -17 -11 -20 -25 -4 -17 -12 -24 -24 -22 -10 2 -15 -1 -12 -7 7 -11 -24
-31 -46 -30 -7 0 -4 4 7 9 17 7 17 9 3 9 -10 1 -23 -8 -30 -19 -13 -21 -62
-28 -73 -10 -3 6 -14 10 -23 9 -14 0 -13 -2 3 -9 16 -7 16 -9 4 -9 -21 -1 -71
24 -63 32 3 3 -3 3 -13 1 -24 -7 -84 41 -77 61 6 14 -14 60 -23 52 -2 -3 0
-15 7 -26 6 -12 8 -21 6 -21 -3 0 -12 14 -21 30 -12 23 -12 30 -3 30 11 0 11
2 0 8 -8 5 -10 16 -6 27 5 13 4 16 -4 11 -7 -4 -12 -1 -12 9 0 9 5 13 10 10 6
-3 10 1 10 9 0 9 -4 16 -10 16 -15 0 -12 36 3 52 8 7 12 18 10 23 -2 6 8 26
22 45 14 19 25 30 25 26 0 -5 9 2 21 15 11 13 17 18 13 10 -4 -9 -2 -12 7 -9
8 3 14 11 14 19 0 10 12 14 40 13 22 -1 32 0 22 3 -22 6 -12 23 14 23 11 0 17
-4 14 -10z m155 -34 c0 -3 -13 1 -30 7 -16 6 -30 15 -30 19 0 5 14 2 30 -7 17
-9 30 -17 30 -19z m-997 -103 c-18 -9 -33 -20 -33 -25 0 -4 -19 -19 -41 -34
l-41 -26 33 -30 34 -30 -41 28 -41 28 51 41 c56 46 86 65 101 64 6 0 -5 -8
-22 -16z m1633 -252 c-4 -5 -29 -25 -56 -45 -33 -24 -50 -31 -50 -22 0 8 10
18 23 22 12 4 35 17 50 30 30 25 42 31 33 15z m-982 -517 c4 -10 1 -14 -6 -12
-15 5 -23 28 -10 28 5 0 13 -7 16 -16z m36 6 c0 -6 64 -9 178 -8 l177 2 -175
6 -175 6 183 2 c120 1 181 -1 177 -8 -9 -14 18 -13 33 2 23 23 20 3 -4 -27
-18 -21 -23 -24 -18 -10 6 21 3 18 -78 -81 -43 -51 -42 -50 -26 -60 6 -4 8 -3
5 3 -4 6 0 14 9 17 8 3 13 10 9 15 -3 5 -1 12 4 15 18 12 4 -25 -25 -63 -17
-23 -32 -35 -36 -28 -4 6 -16 -1 -31 -19 -14 -16 -24 -31 -21 -33 2 -2 12 7
23 20 25 29 27 18 5 -17 -12 -18 -22 -23 -38 -18 -17 5 -19 4 -8 -7 6 -7 12
-17 12 -22 0 -5 -18 12 -39 39 -22 26 -40 50 -39 53 2 22 -4 41 -13 41 -5 0
-7 -6 -3 -12 5 -9 2 -8 -9 1 -13 10 -15 17 -6 27 15 18 -6 45 -27 37 -8 -3
-14 -2 -13 3 3 20 -2 34 -12 32 -6 -2 -16 6 -22 17 -7 11 -18 24 -25 28 -10 7
-10 12 -2 22 7 8 9 19 5 25 -3 5 1 10 9 10 9 0 16 -4 16 -10z m336 -102 c-9
-12 -16 -19 -16 -15 0 11 24 47 28 42 2 -2 -3 -14 -12 -27z m-272 -49 c-3 -5
-10 -7 -15 -3 -5 3 -7 10 -3 15 3 5 10 7 15 3 5 -3 7 -10 3 -15z"/>
<path d="M1114 2088 c-4 -7 -14 -24 -23 -38 -14 -25 -14 -25 5 -5 10 11 25 25
32 32 8 7 9 13 3 17 -5 4 -13 1 -17 -6z"/>
<path d="M1040 1988 c-11 -18 -20 -37 -20 -41 0 -5 -4 -6 -9 -3 -5 3 -11 -1
-15 -9 -10 -28 15 -15 32 17 9 17 25 39 35 50 9 10 12 18 7 18 -6 0 -19 -15
-30 -32z"/>
<path d="M1300 1846 c0 -2 7 -9 15 -16 9 -7 15 -8 15 -2 0 5 -7 12 -15 16 -8
3 -15 4 -15 2z"/>
<path d="M916 1815 c-3 -8 -1 -15 4 -15 6 0 10 7 10 15 0 8 -2 15 -4 15 -2 0
-6 -7 -10 -15z"/>
<path d="M428 1323 c7 -3 16 -2 19 1 4 3 -2 6 -13 5 -11 0 -14 -3 -6 -6z"/>
<path d="M380 1300 c-14 -11 -20 -20 -15 -19 13 0 50 28 44 33 -2 3 -15 -4
-29 -14z"/>
<path d="M385 945 c17 -13 35 -24 40 -24 6 0 -3 11 -20 24 -16 14 -34 25 -40
25 -5 0 4 -11 20 -25z"/>
<path d="M1800 1330 c0 -5 5 -10 11 -10 5 0 7 5 4 10 -3 6 -8 10 -11 10 -2 0
-4 -4 -4 -10z"/>
<path d="M1950 1233 c0 -10 40 -36 46 -30 3 2 -7 12 -21 21 -14 9 -25 13 -25
9z"/>
<path d="M2072 1139 c4 -11 -8 -27 -43 -54 -27 -20 -49 -41 -49 -47 0 -5 -5
-6 -12 -2 -7 5 -8 3 -3 -5 5 -9 17 -3 44 21 20 19 48 44 63 55 26 19 26 22 11
34 -14 12 -16 12 -11 -2z"/>
<path d="M1936 1021 c-4 -5 -2 -12 3 -15 5 -4 12 -2 15 3 4 5 2 12 -3 15 -5 4
-12 2 -15 -3z"/>
<path d="M1138 1343 c7 -3 16 -2 19 1 4 3 -2 6 -13 5 -11 0 -14 -3 -6 -6z"/>
<path d="M1270 1291 c0 -5 7 -15 17 -22 15 -13 15 -12 4 9 -12 23 -21 28 -21
13z"/>
<path d="M940 1249 c0 -5 5 -7 10 -4 6 3 10 8 10 11 0 2 -4 4 -10 4 -5 0 -10
-5 -10 -11z"/>
<path d="M900 1164 c0 -8 5 -12 10 -9 6 3 10 10 10 16 0 5 -4 9 -10 9 -5 0
-10 -7 -10 -16z"/>
<path d="M1342 1150 c0 -14 2 -19 5 -12 2 6 2 18 0 25 -3 6 -5 1 -5 -13z"/>
<path d="M977 956 c15 -13 30 -23 32 -20 5 4 -41 43 -52 44 -4 0 5 -11 20 -24z"/>
<path d="M1128 903 c6 -2 18 -2 25 0 6 3 1 5 -13 5 -14 0 -19 -2 -12 -5z"/>
<path d="M950 391 c0 -6 4 -13 10 -16 6 -3 7 1 4 9 -7 18 -14 21 -14 7z"/>
<path d="M1195 259 c-11 -17 1 -21 15 -4 8 9 8 15 2 15 -6 0 -14 -5 -17 -11z"/>
<path d="M1064 236 c2 -11 8 -22 14 -24 7 -2 10 -7 7 -12 -3 -4 1 -13 8 -19
23 -18 16 15 -9 46 -18 23 -22 24 -20 9z"/>
</g>
</svg>
